<svg xmlns="http://www.w3.org/2000/svg" xmlns:xlink="http://www.w3.org/1999/xlink" width="500" zoomAndPan="magnify" viewBox="0 0 375 374.999991" height="500" preserveAspectRatio="xMidYMid meet" version="1.0"><defs><g/><clipPath id="631aac174e"><path d="M 8.519531 109 L 366.269531 109 L 366.269531 201 L 8.519531 201 Z M 8.519531 109 " clip-rule="nonzero"/></clipPath></defs><path fill="#929292" d="M 59.730469 145.183594 C 59.621094 147.679688 59.550781 150.195312 59.585938 152.710938 C 59.046875 153.734375 58.546875 154.773438 58.097656 155.816406 C 58.492188 152.222656 59.046875 148.667969 59.730469 145.183594 Z M 110.984375 66.460938 C 108.703125 69.011719 106.640625 71.847656 104.757812 74.9375 C 100.46875 77.089844 96.523438 79.425781 92.9375 81.941406 C 98.441406 76.246094 104.488281 71.039062 110.984375 66.460938 Z M 275 81.921875 C 271.414062 79.40625 267.449219 77.054688 263.160156 74.917969 C 261.277344 71.792969 259.179688 68.9375 256.882812 66.371094 C 262.765625 70.519531 268.34375 75.1875 273.527344 80.378906 C 274.03125 80.863281 274.515625 81.402344 275 81.921875 Z M 308.347656 152.691406 C 308.402344 150.140625 308.332031 147.628906 308.207031 145.113281 C 308.886719 148.597656 309.40625 152.097656 309.800781 155.652344 C 309.371094 154.667969 308.886719 153.660156 308.347656 152.691406 Z M 307.847656 196.542969 C 307.578125 191.75 306.230469 187.078125 303.863281 182.535156 C 306.230469 174.1875 307.683594 165.691406 308.167969 157.199219 C 309.445312 160.25 310.214844 163.359375 310.554688 166.5 C 310.574219 167.667969 310.628906 168.851562 310.628906 170.039062 C 310.628906 179.050781 309.675781 187.921875 307.847656 196.542969 Z M 270.675781 262.410156 C 270.980469 261.960938 271.25 261.492188 271.519531 261.027344 C 272.523438 260.273438 273.492188 259.484375 274.480469 258.691406 C 274.15625 259.015625 273.851562 259.375 273.527344 259.699219 C 272.597656 260.632812 271.628906 261.511719 270.675781 262.410156 Z M 93.382812 258.621094 C 94.371094 259.429688 95.359375 260.238281 96.363281 260.992188 C 96.632812 261.457031 96.917969 261.925781 97.222656 262.390625 C 96.273438 261.492188 95.320312 260.613281 94.390625 259.699219 C 94.046875 259.339844 93.726562 258.980469 93.382812 258.621094 Z M 72.304688 140.15625 C 72.414062 148.417969 73.453125 156.894531 75.5 165.546875 C 75.660156 166.195312 75.820312 166.839844 75.984375 167.488281 C 74.835938 168.492188 73.742188 169.515625 72.699219 170.558594 C 69.542969 173.71875 66.941406 176.988281 64.933594 180.308594 C 62.65625 171.78125 61.363281 163.125 61.074219 154.449219 C 63.640625 149.421875 67.425781 144.628906 72.304688 140.15625 Z M 65.308594 125.648438 C 67.765625 120.90625 71.335938 116.417969 75.875 112.25 C 73.597656 120.296875 72.394531 128.71875 72.289062 137.390625 C 71.050781 138.46875 69.867188 139.566406 68.753906 140.660156 C 65.632812 143.800781 63.066406 147 61.003906 150.285156 C 61.023438 145.328125 61.378906 140.390625 62.0625 135.488281 C 63.011719 132.148438 64.109375 128.863281 65.308594 125.648438 Z M 84.628906 91.457031 C 83.769531 92.949219 82.945312 94.472656 82.171875 96.019531 C 81.203125 96.863281 80.269531 97.6875 79.390625 98.566406 C 81.058594 96.125 82.800781 93.738281 84.628906 91.457031 Z M 100.023438 84.328125 C 94.335938 87.21875 89.277344 90.378906 84.917969 93.773438 C 86.296875 91.242188 87.824219 88.761719 89.457031 86.339844 C 93.507812 83.015625 98.210938 79.945312 103.429688 77.199219 C 102.191406 79.460938 101.042969 81.832031 100.023438 84.328125 Z M 127.164062 67.71875 C 126.085938 69.960938 125.117188 72.367188 124.257812 74.902344 C 120.632812 75.960938 117.117188 77.128906 113.710938 78.382812 C 109.546875 79.945312 105.65625 81.597656 101.996094 83.375 C 103.125 80.773438 104.382812 78.3125 105.761719 75.996094 C 112.203125 72.800781 119.394531 70.015625 127.164062 67.71875 Z M 117.316406 62.242188 C 119.164062 61.089844 121.027344 59.996094 122.929688 58.953125 C 127.179688 56.996094 131.792969 55.253906 136.671875 53.765625 C 133.296875 57.210938 130.410156 61.289062 127.988281 66.011719 C 120.492188 68.183594 113.476562 70.789062 107.144531 73.769531 C 110.066406 69.316406 113.476562 65.457031 117.316406 62.242188 Z M 138.878906 51.644531 C 138.554688 51.71875 138.230469 51.808594 137.910156 51.914062 C 138.304688 51.753906 138.699219 51.609375 139.09375 51.464844 C 139.019531 51.519531 138.949219 51.574219 138.878906 51.644531 Z M 160.566406 47.191406 C 154.074219 48.035156 147.8125 49.257812 141.875 50.820312 C 141.910156 50.695312 141.925781 50.550781 141.910156 50.425781 C 148.476562 48.109375 155.273438 46.3125 162.289062 45.109375 C 161.679688 45.738281 161.105469 46.4375 160.566406 47.191406 Z M 226.0625 50.785156 C 220.125 49.222656 213.863281 48 207.351562 47.15625 C 206.832031 46.421875 206.273438 45.738281 205.683594 45.109375 C 212.625 46.3125 219.441406 48.054688 226.042969 50.371094 C 226.007812 50.515625 226.007812 50.640625 226.0625 50.785156 Z M 228.984375 51.574219 C 228.933594 51.519531 228.859375 51.464844 228.789062 51.394531 C 229.183594 51.554688 229.597656 51.699219 229.992188 51.863281 C 229.667969 51.773438 229.328125 51.664062 228.984375 51.574219 Z M 265.941406 83.339844 C 262.28125 81.582031 258.386719 79.910156 254.246094 78.367188 C 250.816406 77.109375 247.300781 75.941406 243.695312 74.882812 C 242.835938 72.351562 241.847656 69.960938 240.773438 67.683594 C 248.539062 70 255.734375 72.765625 262.15625 75.976562 C 263.554688 78.292969 264.8125 80.753906 265.941406 83.339844 Z M 278.445312 86.285156 C 280.09375 88.710938 281.621094 91.1875 283 93.71875 C 278.640625 90.34375 273.601562 87.183594 267.914062 84.308594 C 266.890625 81.8125 265.742188 79.425781 264.488281 77.164062 C 269.707031 79.929688 274.390625 82.964844 278.445312 86.285156 Z M 285.726562 95.964844 C 284.957031 94.382812 284.113281 92.839844 283.234375 91.296875 C 285.117188 93.683594 286.929688 96.109375 288.632812 98.585938 C 287.703125 97.707031 286.734375 96.808594 285.726562 95.964844 Z M 299.21875 140.660156 C 298.089844 139.546875 296.902344 138.46875 295.667969 137.375 C 295.539062 128.609375 294.320312 120.117188 292.007812 112 C 296.546875 116.203125 300.113281 120.726562 302.609375 125.523438 C 303.847656 128.824219 304.941406 132.183594 305.890625 135.597656 C 306.574219 140.460938 306.914062 145.347656 306.933594 150.265625 C 304.886719 146.980469 302.320312 143.785156 299.21875 140.660156 Z M 294.839844 170.558594 C 293.90625 169.605469 292.902344 168.691406 291.882812 167.792969 C 292.078125 167.039062 292.277344 166.285156 292.4375 165.546875 C 294.5 156.894531 295.539062 148.417969 295.628906 140.175781 C 296.347656 140.820312 297.046875 141.484375 297.710938 142.167969 C 301.675781 146.117188 304.726562 150.230469 306.878906 154.433594 C 306.589844 163.25 305.246094 172.085938 302.878906 180.777344 C 300.832031 177.273438 298.140625 173.863281 294.839844 170.558594 Z M 297.65625 195.96875 C 295.71875 192.699219 293.191406 189.539062 290.121094 186.449219 C 289.082031 185.425781 288.007812 184.441406 286.875 183.433594 C 288.667969 178.746094 290.230469 174.042969 291.503906 169.320312 C 292.292969 170.054688 293.082031 170.792969 293.855469 171.546875 C 297.460938 175.15625 300.292969 178.890625 302.359375 182.699219 C 301.066406 187.167969 299.488281 191.605469 297.65625 195.96875 Z M 306.394531 200.886719 C 305.191406 204.121094 303.882812 207.210938 302.464844 210.191406 C 302.050781 205.863281 300.742188 201.625 298.519531 197.496094 C 300.367188 193.21875 301.960938 188.910156 303.289062 184.527344 C 305.425781 189.035156 306.5 193.667969 306.5 198.390625 C 306.5 199.21875 306.464844 200.0625 306.394531 200.886719 Z M 302.589844 213.117188 C 303.238281 211.859375 303.847656 210.566406 304.457031 209.257812 C 303.847656 211.105469 303.21875 212.917969 302.535156 214.75 C 302.574219 214.195312 302.589844 213.671875 302.589844 213.117188 Z M 247.410156 272.664062 C 248.269531 270.617188 248.71875 268.53125 248.792969 266.378906 C 257.023438 262.085938 265.582031 256.574219 273.707031 249.625 C 273.476562 253.160156 272.363281 256.664062 270.460938 260.058594 C 263.320312 265.320312 255.429688 269.484375 247.410156 272.664062 Z M 235.121094 286.058594 C 235.015625 286.09375 234.90625 286.148438 234.796875 286.167969 C 236.644531 284.980469 238.351562 283.761719 239.875 282.449219 C 242.476562 281.675781 245.058594 280.742188 247.570312 279.71875 C 243.535156 282.054688 239.390625 284.171875 235.121094 286.058594 Z M 127.917969 282.394531 C 129.386719 283.6875 131.039062 284.910156 132.832031 286.058594 C 132.796875 286.058594 132.761719 286.042969 132.726562 286.023438 C 128.492188 284.15625 124.328125 282.035156 120.3125 279.683594 C 122.785156 280.707031 125.332031 281.625 127.917969 282.394531 Z M 94.226562 249.625 C 102.355469 256.554688 110.910156 262.070312 119.144531 266.359375 C 119.199219 268.496094 119.648438 270.597656 120.492188 272.644531 C 112.488281 269.449219 104.597656 265.300781 97.457031 260.039062 C 95.554688 256.644531 94.441406 253.144531 94.226562 249.625 Z M 65.328125 213.0625 C 65.328125 213.621094 65.363281 214.160156 65.382812 214.734375 C 64.679688 212.867188 64.035156 211 63.425781 209.113281 C 64.035156 210.460938 64.664062 211.789062 65.328125 213.0625 Z M 81.058594 183.414062 C 79.929688 184.421875 78.835938 185.410156 77.8125 186.449219 C 74.726562 189.519531 72.234375 192.699219 70.296875 195.933594 C 68.394531 191.425781 66.78125 186.847656 65.453125 182.210938 C 68.054688 177.5625 71.75 173.144531 76.378906 169.015625 C 77.652344 173.828125 79.230469 178.640625 81.058594 183.414062 Z M 96.34375 155.796875 C 97.347656 160.84375 98.570312 165.925781 100.003906 170.988281 C 93.242188 174.382812 87.25 178.226562 82.207031 182.445312 C 80.378906 177.632812 78.816406 172.804688 77.5625 167.992188 C 82.78125 163.519531 89.097656 159.441406 96.34375 155.796875 Z M 95.589844 98.855469 C 94.121094 105.644531 93.242188 112.96875 93.078125 120.816406 C 93.042969 121.804688 93.0625 122.792969 93.0625 123.78125 C 85.722656 127.441406 79.210938 131.589844 73.742188 136.152344 C 73.972656 127.246094 75.355469 118.644531 77.902344 110.4375 C 82.871094 106.21875 88.828125 102.339844 95.589844 98.855469 Z M 96.003906 96.953125 C 89.417969 100.292969 83.605469 103.972656 78.691406 107.925781 C 80 104.136719 81.542969 100.4375 83.339844 96.828125 C 87.859375 92.949219 93.242188 89.390625 99.320312 86.195312 C 98.03125 89.589844 96.898438 93.179688 96.003906 96.953125 Z M 121.046875 87.21875 C 115.898438 88.726562 110.945312 90.433594 106.28125 92.300781 C 103.285156 93.523438 100.417969 94.796875 97.671875 96.125 C 98.640625 92.300781 99.804688 88.636719 101.1875 85.226562 C 107.933594 81.832031 115.519531 78.886719 123.71875 76.445312 C 122.660156 79.804688 121.746094 83.394531 121.046875 87.21875 Z M 152.53125 70.285156 C 151.972656 73.660156 151.507812 77.199219 151.167969 80.84375 C 141.175781 82.226562 131.558594 84.203125 122.554688 86.769531 C 123.308594 82.910156 124.238281 79.316406 125.371094 75.960938 C 133.835938 73.519531 142.949219 71.613281 152.53125 70.285156 Z M 154.25 61.953125 C 153.695312 64.144531 153.210938 66.441406 152.761719 68.867188 C 143.417969 70.140625 134.394531 71.992188 125.90625 74.398438 C 126.824219 71.847656 127.828125 69.441406 128.957031 67.179688 C 136.867188 64.933594 145.371094 63.175781 154.25 61.953125 Z M 183.257812 58.558594 C 173.949219 58.578125 164.816406 59.171875 156.082031 60.285156 C 157.460938 55.523438 159.203125 51.519531 161.285156 48.523438 C 168.40625 47.585938 175.761719 47.101562 183.257812 47.066406 Z M 211.871094 60.285156 C 203.117188 59.171875 193.988281 58.578125 184.660156 58.558594 L 184.660156 47.066406 C 192.191406 47.085938 199.546875 47.570312 206.617188 48.46875 C 208.734375 51.484375 210.457031 55.488281 211.871094 60.285156 Z M 215.171875 68.847656 C 214.742188 66.441406 214.257812 64.125 213.683594 61.933594 C 222.582031 63.15625 231.066406 64.917969 238.976562 67.160156 C 240.109375 69.421875 241.132812 71.847656 242.046875 74.398438 C 233.542969 71.972656 224.539062 70.125 215.171875 68.847656 Z M 245.382812 86.714844 C 236.449219 84.183594 226.851562 82.191406 216.789062 80.808594 C 216.429688 77.164062 215.980469 73.644531 215.40625 70.285156 C 225.003906 71.597656 234.117188 73.519531 242.585938 75.941406 C 243.695312 79.300781 244.628906 82.875 245.382812 86.714844 Z M 270.265625 96.035156 C 263.214844 92.625 255.375 89.644531 246.890625 87.164062 C 246.171875 83.339844 245.292969 79.785156 244.214844 76.425781 C 252.433594 78.886719 260.003906 81.8125 266.75 85.191406 C 268.128906 88.601562 269.296875 92.230469 270.265625 96.035156 Z M 271.933594 96.84375 C 271.019531 93.089844 269.90625 89.535156 268.613281 86.175781 C 274.695312 89.355469 280.058594 92.910156 284.578125 96.789062 C 286.355469 100.347656 287.917969 104.027344 289.207031 107.78125 C 284.257812 103.8125 278.445312 100.128906 271.933594 96.84375 Z M 274.894531 123.761719 C 274.894531 122.792969 274.894531 121.804688 274.875 120.816406 C 274.695312 112.878906 273.816406 105.445312 272.308594 98.585938 C 279.054688 102.050781 285.011719 105.949219 289.960938 110.1875 C 292.542969 118.484375 293.980469 127.15625 294.214844 136.132812 C 288.722656 131.589844 282.230469 127.441406 274.894531 123.761719 Z M 267.933594 170.988281 C 269.367188 165.980469 270.570312 160.96875 271.554688 155.996094 C 278.820312 159.675781 285.117188 163.789062 290.300781 168.277344 C 289.066406 173 287.539062 177.757812 285.746094 182.464844 C 280.6875 178.226562 274.695312 174.402344 267.933594 170.988281 Z M 279.648438 196.398438 C 274.945312 192.464844 269.386719 188.894531 263.105469 185.730469 C 264.757812 181.296875 266.226562 176.84375 267.539062 172.355469 C 274.28125 175.765625 280.21875 179.609375 285.207031 183.847656 C 283.558594 188.066406 281.710938 192.25 279.648438 196.398438 Z M 291.039062 209.417969 C 289.191406 206.257812 286.769531 203.167969 283.773438 200.152344 C 282.820312 199.199219 281.78125 198.265625 280.742188 197.351562 C 282.820312 193.21875 284.667969 189.035156 286.335938 184.835938 C 287.289062 185.695312 288.238281 186.558594 289.117188 187.4375 C 292.402344 190.742188 295.003906 194.117188 296.957031 197.601562 C 295.199219 201.589844 293.246094 205.539062 291.039062 209.417969 Z M 218.007812 276.148438 C 217.898438 275.085938 217.613281 274.027344 217.144531 272.988281 C 227.335938 269.054688 236.863281 264.257812 245.632812 258.65625 C 246.746094 260.882812 247.320312 263.183594 247.375 265.535156 C 236.359375 271.191406 225.953125 274.601562 218.007812 276.148438 Z M 217.488281 280.332031 C 217.808594 279.449219 217.988281 278.515625 218.042969 277.582031 C 225.953125 276.039062 236.304688 272.699219 247.339844 267.113281 C 247.175781 269.234375 246.585938 271.335938 245.578125 273.363281 C 235.910156 277.007812 226.1875 279.289062 217.488281 280.332031 Z M 210.347656 288.304688 C 211.585938 287.53125 212.699219 286.6875 213.667969 285.808594 C 220.914062 286.292969 228.769531 285.414062 236.519531 283.402344 C 234.402344 284.945312 232 286.402344 229.398438 287.710938 C 223.40625 289.164062 218.582031 289.203125 210.347656 288.304688 Z M 166.917969 292.308594 C 171.992188 293.78125 177.839844 294.625 183.960938 294.625 C 186.992188 294.625 189.914062 294.425781 192.695312 294.066406 C 193.628906 294.984375 194.597656 295.738281 195.582031 296.292969 C 191.746094 296.636719 187.871094 296.832031 183.960938 296.832031 C 175.382812 296.832031 166.933594 295.972656 158.699219 294.320312 C 161.570312 294.066406 164.226562 293.402344 166.917969 292.308594 Z M 154.324219 285.808594 C 155.292969 286.6875 156.40625 287.53125 157.640625 288.304688 C 149.355469 289.203125 144.527344 289.164062 138.5 287.691406 C 135.898438 286.382812 133.515625 284.945312 131.398438 283.382812 C 139.164062 285.414062 147.058594 286.292969 154.324219 285.808594 Z M 149.890625 277.582031 C 149.945312 278.5 150.125 279.433594 150.449219 280.332031 C 141.75 279.269531 132.007812 277.007812 122.339844 273.34375 C 121.332031 271.316406 120.742188 269.234375 120.597656 267.113281 C 131.613281 272.679688 141.964844 276.039062 149.890625 277.582031 Z M 122.285156 258.621094 C 131.074219 264.257812 140.601562 269.054688 150.789062 272.96875 C 150.304688 274.011719 150.019531 275.070312 149.910156 276.148438 C 141.964844 274.585938 131.578125 271.171875 120.542969 265.515625 C 120.597656 263.144531 121.207031 260.847656 122.285156 258.621094 Z M 76.109375 210.820312 C 74.046875 214.699219 72.84375 218.683594 72.519531 222.777344 C 70.457031 219.582031 68.519531 216.277344 66.746094 212.757812 C 66.796875 208.089844 67.964844 203.546875 70.136719 199.183594 C 71.910156 203.132812 73.902344 207.011719 76.109375 210.820312 Z M 87.214844 197.332031 C 86.136719 198.265625 85.113281 199.199219 84.144531 200.152344 C 81.167969 203.152344 78.746094 206.238281 76.898438 209.398438 C 74.710938 205.519531 72.734375 201.589844 70.996094 197.601562 C 73.507812 193.09375 77.09375 188.820312 81.597656 184.835938 C 83.265625 189.019531 85.132812 193.203125 87.214844 197.332031 Z M 104.847656 185.714844 C 98.550781 188.875 92.988281 192.449219 88.289062 196.382812 C 86.226562 192.25 84.378906 188.050781 82.726562 183.847656 C 87.660156 179.679688 93.617188 175.839844 100.417969 172.40625 C 101.726562 176.863281 103.195312 181.316406 104.847656 185.714844 Z M 124.832031 162.980469 C 125.800781 167.523438 126.894531 172.121094 128.113281 176.734375 C 120.113281 179.050781 112.742188 181.855469 106.101562 185.085938 C 104.46875 180.667969 103 176.234375 101.691406 171.78125 C 108.613281 168.402344 116.398438 165.441406 124.832031 162.980469 Z M 121.675781 145.992188 C 122.464844 151.09375 123.394531 156.28125 124.507812 161.542969 C 116.09375 163.984375 108.292969 166.929688 101.296875 170.359375 C 99.859375 165.277344 98.640625 160.199219 97.636719 155.152344 C 104.847656 151.632812 112.921875 148.542969 121.675781 145.992188 Z M 118.964844 116.023438 C 119.144531 125 119.988281 134.574219 121.457031 144.539062 C 112.722656 147.070312 104.632812 150.125 97.347656 153.679688 C 95.519531 144.054688 94.550781 134.574219 94.441406 125.46875 C 101.78125 121.839844 110.015625 118.679688 118.964844 116.023438 Z M 119.449219 99.054688 C 119.039062 103.738281 118.875 108.679688 118.910156 113.796875 C 110.085938 116.382812 101.871094 119.507812 94.460938 123.078125 C 94.460938 122.34375 94.460938 121.589844 94.476562 120.851562 C 94.65625 112.683594 95.589844 105.03125 97.207031 98.03125 C 104.292969 94.527344 112.183594 91.4375 120.757812 88.851562 C 120.203125 92.105469 119.753906 95.480469 119.449219 99.054688 Z M 150.109375 107.257812 C 139.632812 108.679688 129.640625 110.742188 120.3125 113.382812 C 120.273438 108.515625 120.453125 103.757812 120.847656 99.160156 C 121.171875 95.40625 121.65625 91.816406 122.25 88.441406 C 131.234375 85.800781 140.90625 83.734375 151.023438 82.316406 C 150.324219 90.363281 150.054688 98.910156 150.109375 107.257812 Z M 183.257812 80.019531 L 183.257812 105.03125 C 172.28125 105.070312 161.554688 105.785156 151.257812 107.117188 C 151.238281 98.210938 151.5625 89.789062 152.261719 82.136719 C 162.234375 80.808594 172.621094 80.074219 183.257812 80.019531 Z M 183.257812 68.183594 L 183.257812 78.617188 C 172.800781 78.652344 162.433594 79.355469 152.402344 80.664062 C 152.78125 76.964844 153.246094 73.410156 153.839844 70.125 C 163.257812 68.886719 173.125 68.21875 183.257812 68.183594 Z M 183.257812 66.765625 C 173.285156 66.800781 163.527344 67.449219 154.089844 68.667969 C 154.558594 66.246094 155.078125 63.929688 155.652344 61.773438 C 164.53125 60.605469 173.789062 59.996094 183.257812 59.960938 Z M 184.660156 66.765625 L 184.660156 59.960938 C 194.148438 59.996094 203.40625 60.605469 212.285156 61.757812 C 212.875 63.910156 213.378906 66.226562 213.84375 68.667969 C 204.410156 67.449219 194.632812 66.800781 184.660156 66.765625 Z M 184.660156 78.617188 L 184.660156 68.183594 C 194.8125 68.203125 204.679688 68.867188 214.113281 70.105469 C 214.6875 73.410156 215.15625 76.929688 215.53125 80.628906 C 205.648438 79.335938 195.277344 78.652344 184.660156 78.617188 Z M 216.679688 107.117188 C 206.402344 105.769531 195.65625 105.050781 184.660156 105.03125 L 184.660156 80.019531 C 195.351562 80.054688 205.738281 80.773438 215.675781 82.066406 C 216.394531 89.734375 216.714844 98.191406 216.679688 107.117188 Z M 247.105469 99.160156 C 247.5 103.757812 247.660156 108.515625 247.625 113.382812 C 238.316406 110.742188 228.324219 108.679688 217.847656 107.257812 C 217.882812 98.875 217.628906 90.308594 216.914062 82.226562 C 227.066406 83.628906 236.699219 85.65625 245.652344 88.226562 C 246.28125 91.691406 246.765625 95.335938 247.105469 99.160156 Z M 249.023438 113.796875 C 249.078125 108.679688 248.898438 103.738281 248.503906 99.054688 C 248.179688 95.425781 247.734375 91.976562 247.160156 88.65625 C 255.734375 91.207031 263.625 94.257812 270.695312 97.761719 C 272.328125 104.851562 273.277344 112.574219 273.476562 120.851562 C 273.492188 121.589844 273.476562 122.34375 273.492188 123.078125 C 266.085938 119.488281 257.867188 116.382812 249.023438 113.796875 Z M 246.460938 144.664062 C 247.964844 134.625 248.808594 125 248.988281 115.949219 C 257.886719 118.589844 266.121094 121.769531 273.492188 125.433594 C 273.402344 134.589844 272.398438 144.160156 270.570312 153.859375 C 263.304688 150.285156 255.195312 147.214844 246.460938 144.664062 Z M 243.425781 161.5625 C 244.539062 156.335938 245.453125 151.199219 246.242188 146.15625 C 247.300781 146.460938 248.378906 146.746094 249.4375 147.070312 C 257.007812 149.457031 263.96875 152.222656 270.265625 155.332031 C 269.277344 160.324219 268.074219 165.351562 266.660156 170.359375 C 259.644531 166.949219 251.859375 163.984375 243.425781 161.5625 Z M 239.839844 176.734375 C 241.058594 172.101562 242.152344 167.488281 243.121094 162.925781 C 251.535156 165.351562 259.304688 168.3125 266.265625 171.726562 C 264.953125 176.195312 263.484375 180.667969 261.851562 185.105469 C 255.214844 181.871094 247.824219 179.050781 239.839844 176.734375 Z M 257.078125 196.882812 C 254.246094 203.277344 251.125 209.453125 247.714844 215.398438 C 242.332031 212.757812 236.339844 210.476562 229.867188 208.59375 C 231.785156 203.402344 233.613281 198.050781 235.320312 192.59375 C 236.824219 187.726562 238.226562 182.894531 239.5 178.117188 C 247.429688 180.398438 254.765625 183.183594 261.367188 186.414062 C 260.019531 189.933594 258.621094 193.4375 257.078125 196.882812 Z M 262.03125 224.484375 C 258.300781 221.378906 253.902344 218.539062 248.96875 216.027344 C 252.378906 210.0625 255.519531 203.871094 258.371094 197.457031 C 259.894531 194.011719 261.3125 190.546875 262.621094 187.042969 C 268.847656 190.203125 274.355469 193.757812 278.984375 197.675781 C 274.300781 206.886719 268.613281 215.882812 262.03125 224.484375 Z M 265.527344 227.664062 C 264.757812 226.890625 263.933594 226.136719 263.089844 225.398438 C 269.671875 216.816406 275.378906 207.835938 280.078125 198.625 C 281.011719 199.46875 281.925781 200.296875 282.769531 201.15625 C 285.90625 204.300781 288.382812 207.515625 290.210938 210.820312 C 289.726562 211.664062 289.242188 212.507812 288.742188 213.332031 C 283.808594 221.324219 278.066406 228.738281 271.628906 235.527344 C 270.085938 232.816406 268.058594 230.210938 265.527344 227.664062 Z M 241.921875 251.222656 C 241.4375 250.753906 240.914062 250.289062 240.394531 249.839844 C 248.089844 242.996094 255.375 235.257812 261.957031 226.890625 C 262.046875 226.765625 262.136719 226.621094 262.226562 226.511719 C 263.035156 227.214844 263.804688 227.933594 264.523438 228.648438 C 267.089844 231.21875 269.097656 233.875 270.605469 236.585938 C 263.339844 244.074219 255.140625 250.773438 246.152344 256.628906 C 245.078125 254.777344 243.660156 252.980469 241.921875 251.222656 Z M 214.3125 268.980469 C 214.203125 268.875 214.113281 268.800781 214.007812 268.710938 C 222.636719 263.988281 231.191406 257.882812 239.335938 250.773438 C 239.894531 251.242188 240.429688 251.726562 240.933594 252.226562 C 242.601562 253.914062 243.949219 255.640625 244.988281 257.398438 C 236.199219 263.019531 226.671875 267.816406 216.484375 271.730469 C 215.910156 270.777344 215.191406 269.863281 214.3125 268.980469 Z M 128.5625 250.738281 C 136.726562 257.867188 145.300781 263.972656 153.929688 268.695312 C 153.820312 268.800781 153.714844 268.875 153.625 268.980469 C 152.746094 269.863281 152.027344 270.777344 151.433594 271.730469 C 141.246094 267.816406 131.738281 263.003906 122.949219 257.398438 C 124.3125 255.046875 126.210938 252.820312 128.5625 250.738281 Z M 105.691406 226.496094 C 105.796875 226.621094 105.886719 226.765625 105.996094 226.890625 C 112.5625 235.257812 119.84375 242.996094 127.539062 249.820312 C 127.019531 250.289062 126.5 250.753906 125.996094 251.222656 C 124.257812 252.964844 122.839844 254.777344 121.765625 256.628906 C 112.792969 250.773438 104.597656 244.058594 97.332031 236.585938 C 99.285156 233.03125 102.121094 229.636719 105.691406 226.496094 Z M 104.847656 225.382812 C 104.003906 226.117188 103.179688 226.890625 102.40625 227.664062 C 99.859375 230.195312 97.851562 232.816406 96.308594 235.492188 C 89.851562 228.722656 84.128906 221.324219 79.210938 213.332031 C 78.691406 212.507812 78.226562 211.664062 77.722656 210.820312 C 80.109375 206.507812 83.535156 202.433594 87.859375 198.625 C 92.578125 207.820312 98.261719 216.796875 104.847656 225.382812 Z M 109.582031 197.457031 C 112.417969 203.851562 115.558594 210.046875 118.964844 216.007812 C 114.03125 218.539062 109.636719 221.378906 105.921875 224.464844 C 99.339844 215.882812 93.636719 206.886719 88.953125 197.675781 C 93.546875 193.8125 99.054688 190.257812 105.332031 187.097656 C 106.660156 190.582031 108.078125 194.027344 109.582031 197.457031 Z M 132.636719 192.59375 C 134.339844 198.050781 136.167969 203.402344 138.070312 208.59375 C 131.59375 210.460938 125.601562 212.757812 120.222656 215.398438 C 116.832031 209.453125 113.691406 203.277344 110.855469 196.882812 C 109.332031 193.453125 107.933594 189.96875 106.605469 186.449219 C 113.152344 183.273438 120.492188 180.472656 128.472656 178.171875 C 129.746094 182.929688 131.109375 187.761719 132.636719 192.59375 Z M 154.863281 172.660156 C 156.277344 183.523438 157.929688 194.117188 159.757812 204.046875 C 152.671875 205.019531 145.910156 206.402344 139.578125 208.160156 C 136.007812 198.535156 132.726562 188.28125 129.925781 177.757812 C 137.695312 175.570312 146.054688 173.863281 154.863281 172.660156 Z M 153.03125 157.109375 C 153.515625 161.832031 154.074219 166.570312 154.664062 171.242188 C 145.855469 172.425781 137.425781 174.132812 129.550781 176.339844 C 128.347656 171.796875 127.253906 167.199219 126.265625 162.585938 C 134.589844 160.25 143.578125 158.382812 153.03125 157.109375 Z M 151.453125 139.761719 C 151.703125 143.046875 151.957031 146.066406 152.207031 148.722656 C 152.402344 151.039062 152.636719 153.375 152.886719 155.691406 C 143.417969 156.945312 134.375 158.796875 125.945312 161.148438 C 124.847656 155.960938 123.878906 150.769531 123.089844 145.582031 C 131.917969 143.085938 141.441406 141.125 151.453125 139.761719 Z M 151.363281 138.363281 C 141.351562 139.691406 131.792969 141.628906 122.875 144.144531 C 121.40625 134.445312 120.507812 124.839844 120.347656 115.609375 C 129.585938 112.953125 139.578125 110.851562 150.125 109.414062 C 150.214844 119.847656 150.753906 129.9375 151.363281 138.363281 Z M 183.257812 136.222656 C 172.710938 136.242188 162.394531 136.925781 152.492188 138.199219 C 151.777344 128.269531 151.34375 118.519531 151.273438 109.253906 C 161.480469 107.886719 172.207031 107.1875 183.257812 107.152344 Z M 215.441406 138.253906 C 205.558594 136.960938 195.226562 136.261719 184.660156 136.222656 L 184.660156 107.152344 C 195.65625 107.167969 206.402344 107.886719 216.679688 109.234375 C 216.609375 118.519531 216.179688 128.289062 215.441406 138.253906 Z M 216.589844 138.398438 C 217.199219 129.957031 217.71875 119.867188 217.828125 109.378906 C 228.304688 110.796875 238.296875 112.878906 247.605469 115.554688 C 247.429688 124.820312 246.53125 134.5 245.058594 144.25 C 236.160156 141.71875 226.601562 139.742188 216.589844 138.398438 Z M 215.066406 155.691406 C 215.296875 153.375 215.53125 151.039062 215.746094 148.722656 C 215.980469 146.082031 216.230469 143.101562 216.484375 139.832031 C 226.367188 141.179688 235.894531 143.175781 244.84375 145.742188 C 244.039062 150.878906 243.085938 156.011719 241.992188 161.148438 C 233.5625 158.796875 224.519531 156.945312 215.066406 155.691406 Z M 213.273438 171.242188 C 213.863281 166.554688 214.417969 161.832031 214.921875 157.074219 C 224.320312 158.347656 233.328125 160.160156 241.707031 162.515625 C 240.699219 167.164062 239.605469 171.78125 238.40625 176.339844 C 230.511719 174.132812 222.097656 172.425781 213.273438 171.242188 Z M 208.175781 204.046875 C 210.007812 194.101562 211.675781 183.503906 213.09375 172.640625 C 221.847656 173.828125 230.222656 175.515625 238.046875 177.707031 C 235.230469 188.246094 231.929688 198.535156 228.375 208.179688 C 222.042969 206.402344 215.261719 205.019531 208.175781 204.046875 Z M 215.746094 237.429688 C 211.28125 236.191406 206.507812 235.1875 201.519531 234.484375 C 203.78125 225.9375 205.953125 216.078125 207.945312 205.429688 C 214.941406 206.382812 221.632812 207.746094 227.890625 209.488281 C 224.070312 219.726562 219.925781 229.1875 215.746094 237.429688 Z M 229.074219 242.441406 C 225.46875 240.679688 221.503906 239.15625 217.21875 237.863281 C 221.453125 229.53125 225.578125 220.066406 229.382812 209.902344 C 235.785156 211.753906 241.722656 214.015625 247.03125 216.617188 C 241.6875 225.847656 235.660156 234.484375 229.074219 242.441406 Z M 230.351562 243.085938 C 236.914062 235.132812 242.941406 226.476562 248.289062 217.246094 C 253.167969 219.726562 257.492188 222.542969 261.167969 225.597656 C 261.0625 225.742188 260.953125 225.867188 260.847656 226.011719 C 254.28125 234.378906 246.996094 242.101562 239.335938 248.90625 C 236.753906 246.769531 233.738281 244.8125 230.351562 243.085938 Z M 216.574219 239.136719 C 220.753906 240.375 224.644531 241.832031 228.144531 243.519531 C 221.738281 251.132812 214.796875 258.101562 207.40625 264.257812 C 205.71875 263.449219 203.871094 262.714844 201.898438 262.105469 C 206.6875 256.464844 211.691406 248.566406 216.574219 239.136719 Z M 201.164062 235.867188 C 206.042969 236.535156 210.722656 237.503906 215.101562 238.722656 C 210.132812 248.367188 205.109375 256.25 200.425781 261.671875 C 197.96875 260.992188 195.351562 260.453125 192.625 260.09375 C 195.441406 254.652344 198.347656 246.265625 201.164062 235.867188 Z M 184.660156 234.71875 C 189.878906 234.738281 194.972656 235.078125 199.871094 235.6875 C 197.019531 246.105469 194.039062 254.492188 191.117188 259.914062 C 189.035156 259.679688 186.863281 259.554688 184.660156 259.535156 Z M 176.820312 259.914062 C 173.894531 254.492188 170.917969 246.105469 168.082031 235.6875 C 172.925781 235.0625 178.019531 234.738281 183.257812 234.703125 L 183.257812 259.535156 C 181.070312 259.554688 178.898438 259.679688 176.820312 259.914062 Z M 167.527344 261.671875 C 162.84375 256.25 157.820312 248.367188 152.851562 238.722656 C 157.210938 237.519531 161.875 236.550781 166.792969 235.867188 C 169.589844 246.285156 172.496094 254.652344 175.332031 260.09375 C 172.585938 260.433594 169.964844 260.972656 167.527344 261.671875 Z M 160.546875 264.257812 C 153.15625 258.101562 146.214844 251.132812 139.792969 243.535156 C 143.308594 241.867188 147.183594 240.394531 151.382812 239.136719 C 156.261719 248.566406 161.265625 256.464844 166.039062 262.085938 C 164.066406 262.714844 162.214844 263.433594 160.546875 264.257812 Z M 137.585938 243.070312 C 134.214844 244.8125 131.183594 246.769531 128.597656 248.886719 C 120.9375 242.082031 113.65625 234.378906 107.109375 226.011719 C 106.980469 225.867188 106.875 225.722656 106.765625 225.578125 C 110.410156 222.5625 114.75 219.777344 119.664062 217.28125 C 125.011719 226.496094 131.019531 235.132812 137.585938 243.070312 Z M 150.71875 237.863281 C 146.449219 239.136719 142.464844 240.664062 138.878906 242.421875 C 132.292969 234.484375 126.285156 225.867188 120.9375 216.65625 C 126.210938 214.070312 132.152344 211.824219 138.574219 209.957031 C 142.375 220.085938 146.503906 229.546875 150.71875 237.863281 Z M 166.414062 234.484375 C 161.425781 235.1875 156.671875 236.191406 152.207031 237.429688 C 148.027344 229.1875 143.902344 219.726562 140.078125 209.507812 C 146.304688 207.785156 152.976562 206.417969 160.011719 205.449219 C 162 216.078125 164.171875 225.9375 166.414062 234.484375 Z M 183.257812 203.851562 L 183.257812 233.300781 C 177.914062 233.335938 172.710938 233.695312 167.707031 234.324219 C 165.429688 225.777344 163.222656 215.917969 161.210938 205.289062 C 168.261719 204.371094 175.652344 203.886719 183.257812 203.851562 Z M 183.257812 170.71875 L 183.257812 202.449219 C 175.597656 202.46875 168.117188 202.972656 160.960938 203.886719 C 159.09375 193.9375 157.425781 183.324219 156.011719 172.496094 C 164.726562 171.367188 173.859375 170.757812 183.257812 170.71875 Z M 183.257812 155.042969 L 183.257812 169.320312 C 173.839844 169.335938 164.65625 169.949219 155.832031 171.078125 C 155.21875 166.410156 154.664062 161.6875 154.160156 156.929688 C 163.472656 155.742188 173.214844 155.078125 183.257812 155.042969 Z M 183.257812 153.644531 C 173.230469 153.660156 163.417969 154.308594 154.019531 155.527344 C 153.480469 150.214844 152.996094 144.878906 152.601562 139.617188 C 162.394531 138.34375 172.675781 137.660156 183.257812 137.625 Z M 184.660156 153.644531 L 184.660156 137.644531 C 195.097656 137.679688 205.394531 138.398438 215.335938 139.691406 C 214.957031 144.933594 214.472656 150.230469 213.917969 155.527344 C 204.515625 154.308594 194.703125 153.660156 184.660156 153.644531 Z M 184.660156 169.320312 L 184.660156 155.042969 C 194.667969 155.078125 204.425781 155.707031 213.792969 156.910156 C 213.289062 161.667969 212.734375 166.410156 212.125 171.097656 C 203.296875 169.949219 194.09375 169.335938 184.660156 169.320312 Z M 184.660156 202.449219 L 184.660156 170.71875 C 194.023438 170.738281 203.171875 171.347656 211.945312 172.480469 C 210.527344 183.324219 208.839844 193.9375 206.992188 203.90625 C 199.816406 202.972656 192.320312 202.46875 184.660156 202.449219 Z M 184.660156 203.851562 C 192.246094 203.886719 199.636719 204.355469 206.742188 205.269531 C 204.734375 215.917969 202.527344 225.777344 200.230469 234.34375 C 195.226562 233.695312 190.003906 233.335938 184.660156 233.300781 Z M 155.023438 267.707031 C 146.414062 263.019531 137.800781 256.949219 129.640625 249.804688 C 132.152344 247.773438 135.128906 245.890625 138.5 244.183594 C 144.90625 251.796875 151.828125 258.746094 159.183594 264.960938 C 157.640625 265.785156 156.242188 266.703125 155.023438 267.707031 Z M 208.75 264.960938 C 216.125 258.765625 223.046875 251.796875 229.433594 244.183594 C 232.769531 245.890625 235.730469 247.773438 238.261719 249.859375 C 230.097656 256.96875 221.523438 263.039062 212.914062 267.726562 C 211.691406 266.71875 210.3125 265.804688 208.75 264.960938 Z M 198.578125 295.972656 C 197.164062 295.648438 195.800781 294.914062 194.488281 293.796875 C 196.804688 293.421875 198.992188 292.917969 201.054688 292.328125 C 203.746094 293.402344 206.382812 294.066406 209.21875 294.320312 C 205.71875 295.019531 202.148438 295.558594 198.578125 295.972656 Z M 212.804688 283.671875 C 207.460938 289.039062 196.121094 292.507812 183.960938 292.507812 C 171.796875 292.507812 160.476562 289.039062 155.113281 283.671875 C 153.03125 281.589844 151.972656 279.359375 151.972656 277.082031 C 151.972656 268.550781 166.324219 261.621094 183.960938 261.621094 C 196.121094 261.621094 207.460938 265.101562 212.804688 270.472656 C 214.902344 272.554688 215.960938 274.78125 215.960938 277.082031 C 215.960938 279.359375 214.902344 281.589844 212.804688 283.671875 Z M 73.8125 224.808594 C 73.882812 220.496094 74.980469 216.3125 76.96875 212.273438 C 77.3125 212.882812 77.652344 213.476562 78.027344 214.085938 C 83.070312 222.273438 88.972656 229.871094 95.609375 236.820312 C 94.011719 239.980469 93.097656 243.230469 92.863281 246.554688 C 85.992188 240.394531 79.480469 233.191406 73.8125 224.808594 Z M 94.191406 247.738281 C 94.28125 244.34375 95.125 241.058594 96.648438 237.898438 C 103.949219 245.332031 112.128906 252.03125 121.101562 257.867188 C 119.96875 260.128906 119.34375 262.445312 119.179688 264.816406 C 110.894531 260.433594 102.316406 254.8125 94.191406 247.738281 Z M 127.003906 279.648438 C 125.566406 278.230469 124.402344 276.757812 123.449219 275.265625 C 133.011719 278.734375 142.589844 280.871094 151.128906 281.839844 C 151.613281 282.753906 152.226562 283.617188 152.976562 284.480469 C 145.226562 284.820312 136.796875 283.617188 128.632812 281.175781 C 128.078125 280.671875 127.503906 280.167969 127.003906 279.648438 Z M 147.632812 291.554688 C 146.269531 291.085938 144.921875 290.585938 143.632812 290.0625 C 148.132812 290.566406 152.78125 290.277344 159.742188 289.472656 C 161.285156 290.277344 162.953125 290.996094 164.765625 291.609375 C 160.941406 292.902344 157.121094 293.296875 152.457031 292.863281 C 152.441406 292.863281 152.402344 292.863281 152.402344 292.863281 C 150.808594 292.46875 149.210938 292.019531 147.632812 291.554688 Z M 220.285156 291.554688 C 218.707031 292.019531 217.128906 292.453125 215.53125 292.863281 C 215.515625 292.863281 215.515625 292.863281 215.496094 292.863281 C 210.832031 293.296875 207.046875 292.902344 203.242188 291.625 C 205.054688 290.996094 206.742188 290.277344 208.265625 289.488281 C 215.171875 290.277344 219.800781 290.566406 224.285156 290.0625 C 222.996094 290.585938 221.648438 291.085938 220.285156 291.554688 Z M 239.285156 281.175781 C 231.121094 283.617188 222.707031 284.820312 214.992188 284.480469 C 215.730469 283.617188 216.339844 282.753906 216.839844 281.839844 C 225.34375 280.871094 234.925781 278.75 244.484375 275.285156 C 243.515625 276.757812 242.351562 278.230469 240.933594 279.648438 C 240.414062 280.167969 239.839844 280.671875 239.285156 281.175781 Z M 248.738281 264.832031 C 248.59375 262.445312 247.949219 260.148438 246.816406 257.867188 C 255.804688 252.03125 263.984375 245.351562 271.285156 237.898438 C 272.847656 241.09375 273.65625 244.398438 273.726562 247.757812 C 265.601562 254.8125 257.023438 260.453125 248.738281 264.832031 Z M 275.070312 246.570312 C 274.839844 243.25 273.925781 240 272.308594 236.839844 C 278.984375 229.871094 284.882812 222.273438 289.925781 214.085938 C 290.285156 213.476562 290.625 212.882812 290.984375 212.273438 C 292.992188 216.347656 294.050781 220.550781 294.105469 224.84375 C 288.4375 233.210938 281.941406 240.410156 275.070312 246.570312 Z M 295.414062 222.8125 C 295.074219 218.71875 293.871094 214.734375 291.84375 210.835938 C 294.035156 207.011719 296.042969 203.132812 297.800781 199.183594 C 300.007812 203.617188 301.136719 208.144531 301.191406 212.792969 C 299.398438 216.296875 297.460938 219.636719 295.414062 222.8125 Z M 290.695312 166.734375 C 285.386719 162.226562 279.035156 158.132812 271.878906 154.503906 C 273.726562 144.84375 274.75 135.289062 274.875 126.113281 C 282.320312 129.902344 288.832031 134.214844 294.25 138.9375 C 294.25 147.464844 293.207031 156.246094 291.074219 165.226562 C 290.964844 165.726562 290.824219 166.230469 290.695312 166.734375 Z M 228.304688 52.847656 C 232.125 56.277344 235.371094 60.5 238.082031 65.472656 C 230.296875 63.316406 221.972656 61.648438 213.289062 60.480469 C 212.015625 55.902344 210.417969 51.898438 208.445312 48.71875 C 215.386719 49.6875 222.042969 51.070312 228.304688 52.847656 Z M 139.578125 52.902344 C 145.839844 51.125 152.53125 49.726562 159.488281 48.738281 C 157.515625 51.914062 155.9375 55.917969 154.664062 60.480469 C 145.980469 61.667969 137.65625 63.335938 129.871094 65.472656 C 132.546875 60.554688 135.773438 56.332031 139.578125 52.902344 Z M 76.863281 165.226562 C 74.746094 156.246094 73.703125 147.449219 73.6875 138.917969 C 79.050781 134.265625 85.5625 129.976562 93.0625 126.167969 C 93.203125 135.273438 94.210938 144.71875 96.039062 154.308594 C 88.863281 157.917969 82.511719 161.976562 77.183594 166.464844 C 77.078125 166.050781 76.96875 165.636719 76.863281 165.226562 Z M 61.039062 198.390625 C 61.039062 193.453125 62.242188 188.640625 64.519531 184.042969 C 65.867188 188.570312 67.515625 193.058594 69.417969 197.476562 C 67.191406 201.589844 65.882812 205.828125 65.472656 210.136719 C 63.855469 206.761719 62.386719 203.242188 61.074219 199.558594 C 61.058594 199.183594 61.039062 198.789062 61.039062 198.390625 Z M 67.675781 220.390625 C 67.300781 218.953125 67.050781 217.515625 66.90625 216.0625 C 68.628906 219.242188 70.457031 222.292969 72.394531 225.183594 C 72.394531 225.203125 72.394531 225.21875 72.394531 225.238281 C 72.394531 227.304688 72.628906 229.351562 73.078125 231.378906 C 71.085938 227.804688 69.292969 224.144531 67.675781 220.390625 Z M 82.136719 245.296875 C 82.046875 245.207031 81.957031 245.136719 81.847656 245.097656 C 79.949219 242.511719 78.171875 239.855469 76.484375 237.144531 C 75.015625 233.929688 74.136719 230.644531 73.882812 227.320312 C 79.554688 235.402344 85.992188 242.371094 92.773438 248.332031 C 92.792969 251.617188 93.507812 254.867188 94.890625 258.027344 C 90.191406 254.292969 85.851562 250.074219 82.136719 245.296875 Z M 104.238281 268.570312 C 102.390625 266.808594 100.773438 264.996094 99.429688 263.128906 C 106.335938 267.816406 113.800781 271.566406 121.351562 274.476562 C 122.390625 276.433594 123.792969 278.320312 125.566406 280.167969 C 119.789062 278.175781 114.246094 275.570312 109.242188 272.449219 C 107.554688 271.191406 105.886719 269.914062 104.238281 268.570312 Z M 263.699219 268.570312 C 262.011719 269.933594 260.289062 271.261719 258.550781 272.539062 C 253.5625 275.660156 248.019531 278.230469 242.277344 280.207031 C 244.039062 278.390625 245.453125 276.46875 246.53125 274.496094 C 254.082031 271.605469 261.546875 267.851562 268.453125 263.164062 C 267.125 265.011719 265.527344 266.828125 263.699219 268.570312 Z M 286.070312 245.097656 C 285.980469 245.136719 285.890625 245.207031 285.816406 245.296875 C 282.085938 250.089844 277.726562 254.3125 273.027344 258.0625 C 274.410156 254.886719 275.125 251.636719 275.144531 248.347656 C 281.925781 242.386719 288.363281 235.421875 294.035156 227.375 C 293.78125 230.695312 292.886719 233.964844 291.433594 237.179688 C 289.746094 239.875 287.96875 242.511719 286.070312 245.097656 Z M 294.839844 231.378906 C 295.289062 229.367188 295.523438 227.304688 295.523438 225.238281 C 297.460938 222.328125 299.289062 219.3125 301.011719 216.117188 C 300.867188 217.550781 300.617188 218.972656 300.257812 220.40625 C 298.625 224.144531 296.832031 227.824219 294.839844 231.378906 Z M 299.613281 118.214844 C 297.261719 115.160156 294.429688 112.234375 291.21875 109.433594 C 290.105469 105.964844 288.796875 102.554688 287.289062 99.234375 C 289.601562 101.460938 291.664062 103.757812 293.421875 106.164062 C 295.71875 110.0625 297.765625 114.101562 299.613281 118.214844 Z M 260.792969 73.75 C 254.441406 70.753906 247.445312 68.148438 239.945312 65.992188 C 237.507812 61.253906 234.601562 57.160156 231.210938 53.675781 C 236.199219 55.21875 240.914062 57.035156 245.292969 59.0625 C 246.996094 60.015625 248.683594 60.984375 250.351562 62.023438 C 254.296875 65.257812 257.796875 69.191406 260.792969 73.75 Z M 203.136719 44.679688 C 203.941406 45.324219 204.695312 46.0625 205.433594 46.921875 C 198.703125 46.117188 191.761719 45.683594 184.660156 45.648438 L 184.660156 43.261719 C 190.902344 43.277344 197.074219 43.761719 203.136719 44.679688 Z M 183.257812 43.242188 L 183.257812 45.648438 C 176.191406 45.683594 169.230469 46.132812 162.503906 46.941406 C 163.222656 46.078125 163.992188 45.324219 164.800781 44.679688 C 170.828125 43.761719 177 43.277344 183.257812 43.242188 Z M 74.601562 106.09375 C 76.34375 103.738281 78.351562 101.460938 80.628906 99.285156 C 79.105469 102.644531 77.796875 106.09375 76.683594 109.613281 C 73.417969 112.429688 70.601562 115.410156 68.25 118.464844 C 70.152344 114.207031 72.269531 110.078125 74.601562 106.09375 Z M 57.328125 167.632812 C 57.558594 164.09375 58.386719 160.628906 59.785156 157.253906 C 60.25 165.566406 61.667969 173.863281 63.945312 182.035156 C 61.613281 186.324219 60.234375 190.742188 59.800781 195.285156 C 58.152344 187.0625 57.289062 178.601562 57.289062 170.039062 C 57.289062 169.230469 57.308594 168.421875 57.328125 167.632812 Z M 55.136719 169.734375 C 55.136719 169.824219 55.15625 169.894531 55.191406 169.984375 C 55.191406 170 55.171875 170.019531 55.171875 170.039062 C 55.171875 204.460938 68.574219 236.839844 92.898438 261.1875 C 117.226562 285.539062 149.550781 298.933594 183.960938 298.933594 C 254.925781 298.933594 312.671875 241.167969 312.746094 170.144531 C 312.796875 170.019531 312.832031 169.875 312.832031 169.734375 C 312.832031 168.601562 312.761719 167.488281 312.65625 166.375 C 311.738281 133.316406 298.484375 102.355469 275.019531 78.886719 C 250.691406 54.539062 218.367188 41.125 183.960938 41.125 C 149.570312 41.125 117.226562 54.539062 92.898438 78.886719 C 69.292969 102.519531 56.015625 133.691406 55.261719 167.003906 C 55.171875 167.917969 55.136719 168.816406 55.136719 169.734375 " fill-opacity="1" fill-rule="nonzero"/><g clip-path="url(#631aac174e)"><path fill="#929292" d="M 320.296875 195.140625 C 318.339844 195.304688 317.085938 196.613281 317.480469 198.050781 C 317.875 199.503906 319.777344 200.546875 321.730469 200.386719 C 335.402344 199.234375 346.378906 197.171875 353.933594 194.226562 C 361.953125 191.101562 366.347656 186.933594 366.347656 181.746094 C 366.347656 170.972656 345.824219 158.472656 312.671875 147 C 280.667969 135.917969 236.519531 125.433594 187.816406 118.195312 C 163.203125 114.550781 139.8125 112.070312 118.554688 110.707031 C 87.769531 108.730469 61.398438 109.128906 42.363281 111.710938 C 22.164062 114.460938 9.839844 119.867188 8.566406 127.800781 C 8.496094 128.269531 8.460938 128.734375 8.460938 129.183594 C 8.460938 133.65625 11.796875 138.324219 17.96875 143.046875 C 23.90625 147.554688 32.550781 152.207031 43.421875 156.804688 C 45.21875 157.558594 47.386719 157.179688 48.265625 155.921875 C 49.144531 154.683594 48.410156 153.066406 46.617188 152.296875 C 36.410156 147.988281 28.355469 143.675781 22.992188 139.582031 C 18.253906 135.972656 15.691406 132.613281 15.691406 129.652344 C 15.691406 129.363281 15.726562 129.09375 15.761719 128.863281 C 16.660156 123.277344 27.046875 119.238281 44.25 116.902344 C 62.617188 114.386719 88.34375 114.046875 118.554688 115.96875 C 139.578125 117.316406 162.71875 119.777344 186.992188 123.386719 C 235.105469 130.515625 278.625 140.839844 310.070312 151.722656 C 340.351562 162.207031 359.097656 172.894531 359.097656 181.277344 C 359.097656 184.492188 355.925781 187.257812 350.113281 189.519531 C 343.277344 192.179688 333.105469 194.066406 320.296875 195.140625 " fill-opacity="1" fill-rule="nonzero"/></g><path fill="#929292" d="M 316.941406 38.179688 L 317.121094 38.179688 C 318.339844 54.25 331.148438 67.089844 347.207031 68.292969 L 347.207031 68.488281 C 331.148438 69.691406 318.339844 82.53125 317.121094 98.605469 L 316.941406 98.605469 C 315.722656 82.53125 302.914062 69.691406 286.859375 68.488281 L 286.859375 68.292969 C 302.914062 67.089844 315.722656 54.25 316.941406 38.179688 " fill-opacity="1" fill-rule="evenodd"/><path fill="#929292" d="M 347.691406 93.628906 L 347.78125 93.628906 C 348.28125 100.472656 353.734375 105.929688 360.550781 106.433594 L 360.550781 106.523438 C 353.734375 107.027344 348.28125 112.484375 347.78125 119.308594 L 347.691406 119.308594 C 347.1875 112.484375 341.734375 107.027344 334.898438 106.523438 L 334.898438 106.433594 C 341.734375 105.929688 347.1875 100.472656 347.691406 93.628906 " fill-opacity="1" fill-rule="evenodd"/><g fill="#c4c4c4" fill-opacity="1"><g transform="translate(124.112413, 262.388078)"><g><path d="M 41.640625 -65.765625 C 41.640625 -71.566406 42.128906 -76.40625 43.109375 -80.28125 C 44.085938 -84.164062 45.800781 -87.71875 48.25 -90.9375 C 50.707031 -94.164062 54.222656 -97.617188 58.796875 -101.296875 L 69.453125 -109.984375 C 74.671875 -114.234375 78.363281 -118.113281 80.53125 -121.625 C 82.695312 -125.132812 83.78125 -129.132812 83.78125 -133.625 C 83.78125 -139.09375 81.835938 -143.441406 77.953125 -146.671875 C 74.078125 -149.898438 68.425781 -151.515625 61 -151.515625 C 53.5625 -151.515625 47.128906 -149.71875 41.703125 -146.125 C 36.273438 -142.53125 31.476562 -137.425781 27.3125 -130.8125 L 24.5 -130.328125 L 4.40625 -152.125 C 11.1875 -161.84375 19.351562 -169.191406 28.90625 -174.171875 C 38.457031 -179.148438 49.847656 -181.640625 63.078125 -181.640625 C 75.566406 -181.640625 86.035156 -179.738281 94.484375 -175.9375 C 102.941406 -172.144531 109.210938 -166.898438 113.296875 -160.203125 C 117.378906 -153.503906 119.421875 -145.867188 119.421875 -137.296875 C 119.421875 -127.910156 117.476562 -119.847656 113.59375 -113.109375 C 109.71875 -106.367188 103.78125 -99.816406 95.78125 -93.453125 L 83.90625 -84.015625 C 79.40625 -80.503906 76.398438 -77.34375 74.890625 -74.53125 C 73.378906 -71.71875 72.625 -67.984375 72.625 -63.328125 L 72.625 -59.40625 L 41.640625 -59.40625 Z M 57.203125 1.21875 C 52.953125 1.21875 49.210938 0.363281 45.984375 -1.34375 C 42.765625 -3.0625 40.273438 -5.429688 38.515625 -8.453125 C 36.765625 -11.472656 35.890625 -14.863281 35.890625 -18.625 C 35.890625 -22.457031 36.765625 -25.90625 38.515625 -28.96875 C 40.273438 -32.03125 42.765625 -34.414062 45.984375 -36.125 C 49.210938 -37.84375 52.953125 -38.703125 57.203125 -38.703125 C 63.566406 -38.703125 68.6875 -36.820312 72.5625 -33.0625 C 76.445312 -29.3125 78.390625 -24.535156 78.390625 -18.734375 C 78.390625 -12.941406 76.445312 -8.164062 72.5625 -4.40625 C 68.6875 -0.65625 63.566406 1.21875 57.203125 1.21875 Z M 57.203125 1.21875 "/></g></g></g></svg>